<?xml version="1.0" ?><svg version="1.1" viewBox="0 0 141.332992553711 141.332992553711" xmlns="http://www.w3.org/2000/svg" xmlns:xlink="http://www.w3.org/1999/xlink"><defs><linearGradient id="def0" x1="0.500005" x2="0.500004" y1="1" y2="4.64241E-06"><stop offset="0" stop-color="#FF3300"/><stop offset="1" stop-color="#FF6900"/></linearGradient></defs><g><path d="M17.3333,0C7.76,0,0,7.75999,0,17.3333L0,124C0,133.573,7.76,141.333,17.3333,141.333L124,141.333C133.573,141.333,141.333,133.573,141.333,124L141.333,17.3333C141.333,7.75999,133.573,0,124,0L17.3333,0z" fill="url(#def0)"/><path d="M122.667,46.6667L105.333,46.6667 105.333,29.3333 101.333,29.3333 101.333,46.6667 84,46.6667 84,50.6667 101.333,50.6667 101.333,68 105.333,68 105.333,50.6667 122.667,50.6667 122.667,46.6667z" fill="#FFFFFF"/><path d="M48.0488,110.543C37.8528,110.543 30.4888,104.088 30.4888,96.3363 30.4888,88.7376 39.6221,82.4109 49.8181,82.5216 52.1981,82.5469 54.4155,82.9296 56.4288,83.5803 61.9648,87.4309 65.9341,89.6056 67.0541,93.9923 67.2648,94.8816 67.3795,95.7963 67.3795,96.7323 67.3795,104.484 62.3835,110.543 48.0488,110.543z M50.7288,65.0723C43.8835,64.8683 37.3795,57.4163 36.1981,48.4296 35.0168,39.4416 39.6061,32.5629 46.4488,32.7669 53.2915,32.9723 59.7995,40.1843 60.9795,49.1709 62.1595,58.1589 57.5701,65.2776 50.7288,65.0723z M64.9208,78.3829C62.5195,76.6829 57.9275,72.5496 57.9275,70.1203 57.9275,67.2723 58.7408,65.8696 63.0261,62.5203 67.4195,59.0883 70.5288,54.2763 70.5288,48.6629 70.5288,41.9803 67.5515,36.0003 61.9661,33.3336L70.3888,33.3336 76.3328,29.3336 49.7688,29.3336C37.8581,29.3336 26.6501,38.1923 26.6501,48.6443 26.6501,59.3243 34.7688,67.8629 46.8848,67.8629 47.7275,67.8629 48.5461,67.8056 49.3475,67.7469 48.5608,69.2536 47.9981,70.9283 47.9981,72.6883 47.9981,75.6563 49.5955,78.0536 51.6141,80.0163 50.0888,80.0163 48.6168,80.0563 47.0088,80.0563 32.2581,80.0563 20.9035,89.4496 20.9035,99.1909 20.9035,108.786 33.3515,114.787 48.1035,114.787 64.9208,114.787 74.2088,105.243 74.2088,95.6469 74.2088,87.9549 71.9381,83.3469 64.9208,78.3829z" fill="#FFFFFF"/></g></svg>